<svg width="531" height="492" viewBox="0 0 531 492" fill="none" xmlns="http://www.w3.org/2000/svg">
<g clip-path="url(#clip0)">
<path d="M0 -18C0 -20.7614 2.23858 -23 5 -23H558C560.761 -23 563 -20.7614 563 -18V512C563 514.761 560.761 517 558 517H4.99999C2.23856 517 0 514.761 0 512V-18Z" fill="#ED960B"/>
<path d="M362.5 434C496.981 434 606 324.981 606 190.5C606 56.0187 496.981 -53 362.5 -53C228.019 -53 119 56.0187 119 190.5C119 324.981 228.019 434 362.5 434Z" fill="black" fill-opacity="0.55"/>
<path d="M418.5 690C544.697 690 647 587.697 647 461.5C647 335.303 544.697 233 418.5 233C292.303 233 190 335.303 190 461.5C190 587.697 292.303 690 418.5 690Z" stroke="#F3F3F3" stroke-width="30"/>
<path d="M264.68 71.4844H270.984L274.57 95.5547L283.289 71.4844H289.266L297.422 94.6172L301.219 71.4844H307.336L301.031 105H295.125L285.914 78.7031L276.023 105H270.188L264.68 71.4844ZM321.469 80.3906C328.938 80.3906 332.672 84.2031 332.672 91.8281C332.672 92.8438 332.602 93.8594 332.461 94.875H316.125C316.125 98.3438 318.672 100.078 323.766 100.078C326.25 100.078 328.734 99.8438 331.219 99.375V104.297C329.047 104.766 326.406 105 323.297 105C314.375 105 309.914 100.805 309.914 92.4141C309.914 84.3984 313.766 80.3906 321.469 80.3906ZM316.125 90.5625H326.625V90.375C326.625 86.9688 324.906 85.2656 321.469 85.2656C318.188 85.2656 316.406 87.0312 316.125 90.5625ZM343.547 71.4844V105H337.336V71.4844H343.547ZM367.594 104.297C365.562 104.766 363.453 105 361.266 105C352.516 105 348.141 100.742 348.141 92.2266C348.141 84.3359 352.516 80.3906 361.266 80.3906C363.453 80.3906 365.562 80.625 367.594 81.0938V86.0156C365.562 85.5469 363.609 85.3125 361.734 85.3125C356.812 85.3125 354.352 87.6172 354.352 92.2266C354.352 97.4609 356.812 100.078 361.734 100.078C363.609 100.078 365.562 99.8438 367.594 99.375V104.297ZM376.734 92.6016C376.734 97.7422 378.727 100.312 382.711 100.312C386.695 100.312 388.688 97.7422 388.688 92.6016C388.688 87.5859 386.695 85.0781 382.711 85.0781C378.727 85.0781 376.734 87.5859 376.734 92.6016ZM370.523 92.6953C370.523 84.4453 374.586 80.3203 382.711 80.3203C390.836 80.3203 394.898 84.4453 394.898 92.6953C394.898 100.93 390.836 105.047 382.711 105.047C374.617 105.047 370.555 100.93 370.523 92.6953ZM399.586 105V80.3906H404.391L405.117 83.9531C407.32 81.5781 409.969 80.3906 413.062 80.3906C416.156 80.3906 418.273 81.5156 419.414 83.7656C421.93 81.5156 424.562 80.3906 427.312 80.3906C432.969 80.3906 435.797 83.5078 435.797 89.7422V105H429.586V89.5078C429.586 86.7734 428.352 85.4062 425.883 85.4062C424.039 85.4062 422.266 86.2344 420.562 87.8906V105H414.352V89.5781C414.352 86.7969 413.211 85.4062 410.93 85.4062C409.117 85.4062 407.406 86.2344 405.797 87.8906V105H399.586ZM452.062 80.3906C459.531 80.3906 463.266 84.2031 463.266 91.8281C463.266 92.8438 463.195 93.8594 463.055 94.875H446.719C446.719 98.3438 449.266 100.078 454.359 100.078C456.844 100.078 459.328 99.8438 461.812 99.375V104.297C459.641 104.766 457 105 453.891 105C444.969 105 440.508 100.805 440.508 92.4141C440.508 84.3984 444.359 80.3906 452.062 80.3906ZM446.719 90.5625H457.219V90.375C457.219 86.9688 455.5 85.2656 452.062 85.2656C448.781 85.2656 447 87.0312 446.719 90.5625ZM175.453 130.406H180.047L180.984 134.391H187.172V139.312H181.664V150.633C181.664 152.93 182.656 154.078 184.641 154.078H187.172V159H181.641C177.516 159 175.453 156.789 175.453 152.367V130.406ZM196.453 146.602C196.453 151.742 198.445 154.312 202.43 154.312C206.414 154.312 208.406 151.742 208.406 146.602C208.406 141.586 206.414 139.078 202.43 139.078C198.445 139.078 196.453 141.586 196.453 146.602ZM190.242 146.695C190.242 138.445 194.305 134.32 202.43 134.32C210.555 134.32 214.617 138.445 214.617 146.695C214.617 154.93 210.555 159.047 202.43 159.047C194.336 159.047 190.273 154.93 190.242 146.695ZM229.5 130.406H234.094L235.031 134.391H241.219V139.312H235.711V150.633C235.711 152.93 236.703 154.078 238.688 154.078H241.219V159H235.688C231.562 159 229.5 156.789 229.5 152.367V130.406ZM245.461 159V125.484H251.672V137.531C253.609 135.438 256.086 134.391 259.102 134.391C264.93 134.391 267.844 137.422 267.844 143.484V159H261.633V143.484C261.633 140.766 260.281 139.406 257.578 139.406C255.562 139.406 253.594 140.211 251.672 141.82V159H245.461ZM284.109 134.391C291.578 134.391 295.312 138.203 295.312 145.828C295.312 146.844 295.242 147.859 295.102 148.875H278.766C278.766 152.344 281.312 154.078 286.406 154.078C288.891 154.078 291.375 153.844 293.859 153.375V158.297C291.688 158.766 289.047 159 285.938 159C277.016 159 272.555 154.805 272.555 146.414C272.555 138.398 276.406 134.391 284.109 134.391ZM278.766 144.562H289.266V144.375C289.266 140.969 287.547 139.266 284.109 139.266C280.828 139.266 279.047 141.031 278.766 144.562ZM310.523 157.828V152.672C313.258 153.766 316.414 154.312 319.992 154.312C322.664 154.312 324 153.453 324 151.734C324 150.094 323.102 149.273 321.305 149.273H316.852C311.852 149.273 309.352 146.812 309.352 141.891C309.352 136.734 313 134.156 320.297 134.156C323.391 134.156 326.305 134.625 329.039 135.562V140.719C326.305 139.625 323.336 139.078 320.133 139.078C316.773 139.078 315.094 139.938 315.094 141.656C315.094 143.297 316.07 144.117 318.023 144.117H322.008C327.477 144.117 330.211 146.578 330.211 151.5C330.211 156.656 326.727 159.234 319.758 159.234C316.336 159.234 313.258 158.766 310.523 157.828ZM331.641 134.391H338.227L344.438 152.109L350.508 134.391H356.977L346.758 159.727C344.945 164.195 342.047 167.375 338.062 169.266L335.062 165.023C337.812 163.82 339.812 161.859 341.062 159.141L331.641 134.391ZM359.93 157.828V152.672C362.664 153.766 365.82 154.312 369.398 154.312C372.07 154.312 373.406 153.453 373.406 151.734C373.406 150.094 372.508 149.273 370.711 149.273H366.258C361.258 149.273 358.758 146.812 358.758 141.891C358.758 136.734 362.406 134.156 369.703 134.156C372.797 134.156 375.711 134.625 378.445 135.562V140.719C375.711 139.625 372.742 139.078 369.539 139.078C366.18 139.078 364.5 139.938 364.5 141.656C364.5 143.297 365.477 144.117 367.43 144.117H371.414C376.883 144.117 379.617 146.578 379.617 151.5C379.617 156.656 376.133 159.234 369.164 159.234C365.742 159.234 362.664 158.766 359.93 157.828ZM383.625 130.406H388.219L389.156 134.391H395.344V139.312H389.836V150.633C389.836 152.93 390.828 154.078 392.812 154.078H395.344V159H389.812C385.688 159 383.625 156.789 383.625 152.367V130.406ZM409.969 134.391C417.438 134.391 421.172 138.203 421.172 145.828C421.172 146.844 421.102 147.859 420.961 148.875H404.625C404.625 152.344 407.172 154.078 412.266 154.078C414.75 154.078 417.234 153.844 419.719 153.375V158.297C417.547 158.766 414.906 159 411.797 159C402.875 159 398.414 154.805 398.414 146.414C398.414 138.398 402.266 134.391 409.969 134.391ZM404.625 144.562H415.125V144.375C415.125 140.969 413.406 139.266 409.969 139.266C406.688 139.266 404.906 141.031 404.625 144.562ZM425.836 159V134.391H430.641L431.367 137.953C433.57 135.578 436.219 134.391 439.312 134.391C442.406 134.391 444.523 135.516 445.664 137.766C448.18 135.516 450.812 134.391 453.562 134.391C459.219 134.391 462.047 137.508 462.047 143.742V159H455.836V143.508C455.836 140.773 454.602 139.406 452.133 139.406C450.289 139.406 448.516 140.234 446.812 141.891V159H440.602V143.578C440.602 140.797 439.461 139.406 437.18 139.406C435.367 139.406 433.656 140.234 432.047 141.891V159H425.836Z" fill="#F3F3F3"/>
<path d="M192.982 187.78C193.174 188.02 193.414 188.338 193.702 188.734C194.002 189.118 194.308 189.55 194.62 190.03C194.932 190.498 195.238 190.99 195.538 191.506C195.85 192.022 196.114 192.52 196.33 193H194.422C194.182 192.544 193.918 192.082 193.63 191.614C193.354 191.146 193.072 190.702 192.784 190.282C192.496 189.85 192.208 189.448 191.92 189.076C191.644 188.704 191.392 188.38 191.164 188.104C191.008 188.116 190.846 188.122 190.678 188.122C190.522 188.122 190.36 188.122 190.192 188.122H188.626V193H186.88V180.706C187.372 180.586 187.918 180.508 188.518 180.472C189.13 180.424 189.688 180.4 190.192 180.4C191.944 180.4 193.276 180.73 194.188 181.39C195.112 182.05 195.574 183.034 195.574 184.342C195.574 185.17 195.352 185.878 194.908 186.466C194.476 187.054 193.834 187.492 192.982 187.78ZM190.336 181.93C189.592 181.93 189.022 181.948 188.626 181.984V186.682H189.868C190.468 186.682 191.008 186.652 191.488 186.592C191.968 186.532 192.37 186.418 192.694 186.25C193.03 186.082 193.288 185.848 193.468 185.548C193.648 185.236 193.738 184.828 193.738 184.324C193.738 183.856 193.648 183.466 193.468 183.154C193.288 182.842 193.042 182.596 192.73 182.416C192.43 182.236 192.07 182.11 191.65 182.038C191.242 181.966 190.804 181.93 190.336 181.93ZM198.2 180.526H199.946V193H198.2V180.526ZM208.794 192.064C208.65 192.16 208.368 192.286 207.948 192.442C207.54 192.586 207.06 192.658 206.508 192.658C205.944 192.658 205.41 192.568 204.906 192.388C204.414 192.208 203.982 191.932 203.61 191.56C203.238 191.176 202.944 190.702 202.728 190.138C202.512 189.574 202.404 188.902 202.404 188.122C202.404 187.438 202.506 186.814 202.71 186.25C202.914 185.674 203.208 185.182 203.592 184.774C203.988 184.354 204.468 184.03 205.032 183.802C205.596 183.562 206.232 183.442 206.94 183.442C207.72 183.442 208.398 183.502 208.974 183.622C209.562 183.73 210.054 183.832 210.45 183.928V192.28C210.45 193.72 210.078 194.764 209.334 195.412C208.59 196.06 207.462 196.384 205.95 196.384C205.362 196.384 204.804 196.336 204.276 196.24C203.76 196.144 203.31 196.03 202.926 195.898L203.232 194.44C203.568 194.572 203.976 194.686 204.456 194.782C204.948 194.89 205.458 194.944 205.986 194.944C206.982 194.944 207.696 194.746 208.128 194.35C208.572 193.954 208.794 193.324 208.794 192.46V192.064ZM208.776 185.116C208.608 185.068 208.38 185.026 208.092 184.99C207.816 184.942 207.438 184.918 206.958 184.918C206.058 184.918 205.362 185.212 204.87 185.8C204.39 186.388 204.15 187.168 204.15 188.14C204.15 188.68 204.216 189.142 204.348 189.526C204.492 189.91 204.678 190.228 204.906 190.48C205.146 190.732 205.416 190.918 205.716 191.038C206.028 191.158 206.346 191.218 206.67 191.218C207.114 191.218 207.522 191.158 207.894 191.038C208.266 190.906 208.56 190.756 208.776 190.588V185.116ZM215.007 193H213.333V183.64H215.007V193ZM214.161 181.948C213.861 181.948 213.603 181.852 213.387 181.66C213.183 181.456 213.081 181.186 213.081 180.85C213.081 180.514 213.183 180.25 213.387 180.058C213.603 179.854 213.861 179.752 214.161 179.752C214.461 179.752 214.713 179.854 214.917 180.058C215.133 180.25 215.241 180.514 215.241 180.85C215.241 181.186 215.133 181.456 214.917 181.66C214.713 181.852 214.461 181.948 214.161 181.948ZM220.063 191.794C220.747 191.794 221.251 191.704 221.575 191.524C221.911 191.344 222.079 191.056 222.079 190.66C222.079 190.252 221.917 189.928 221.593 189.688C221.269 189.448 220.735 189.178 219.991 188.878C219.631 188.734 219.283 188.59 218.947 188.446C218.623 188.29 218.341 188.11 218.101 187.906C217.861 187.702 217.669 187.456 217.525 187.168C217.381 186.88 217.309 186.526 217.309 186.106C217.309 185.278 217.615 184.624 218.227 184.144C218.839 183.652 219.673 183.406 220.729 183.406C220.993 183.406 221.257 183.424 221.521 183.46C221.785 183.484 222.031 183.52 222.259 183.568C222.487 183.604 222.685 183.646 222.853 183.694C223.033 183.742 223.171 183.784 223.267 183.82L222.961 185.26C222.781 185.164 222.499 185.068 222.115 184.972C221.731 184.864 221.269 184.81 220.729 184.81C220.261 184.81 219.853 184.906 219.505 185.098C219.157 185.278 218.983 185.566 218.983 185.962C218.983 186.166 219.019 186.346 219.091 186.502C219.175 186.658 219.295 186.802 219.451 186.934C219.619 187.054 219.823 187.168 220.063 187.276C220.303 187.384 220.591 187.498 220.927 187.618C221.371 187.786 221.767 187.954 222.115 188.122C222.463 188.278 222.757 188.464 222.997 188.68C223.249 188.896 223.441 189.16 223.573 189.472C223.705 189.772 223.771 190.144 223.771 190.588C223.771 191.452 223.447 192.106 222.799 192.55C222.163 192.994 221.251 193.216 220.063 193.216C219.235 193.216 218.587 193.144 218.119 193C217.651 192.868 217.333 192.766 217.165 192.694L217.471 191.254C217.663 191.326 217.969 191.434 218.389 191.578C218.809 191.722 219.367 191.794 220.063 191.794ZM227.485 183.64H231.031V185.044H227.485V189.364C227.485 189.832 227.521 190.222 227.593 190.534C227.665 190.834 227.773 191.074 227.917 191.254C228.061 191.422 228.241 191.542 228.457 191.614C228.673 191.686 228.925 191.722 229.213 191.722C229.717 191.722 230.119 191.668 230.419 191.56C230.731 191.44 230.947 191.356 231.067 191.308L231.391 192.694C231.223 192.778 230.929 192.88 230.509 193C230.089 193.132 229.609 193.198 229.069 193.198C228.433 193.198 227.905 193.12 227.485 192.964C227.077 192.796 226.747 192.55 226.495 192.226C226.243 191.902 226.063 191.506 225.955 191.038C225.859 190.558 225.811 190.006 225.811 189.382V181.03L227.485 180.742V183.64ZM232.463 188.338C232.463 187.51 232.583 186.79 232.823 186.178C233.063 185.554 233.381 185.038 233.777 184.63C234.173 184.222 234.629 183.916 235.145 183.712C235.661 183.508 236.189 183.406 236.729 183.406C237.989 183.406 238.955 183.802 239.627 184.594C240.299 185.374 240.635 186.568 240.635 188.176C240.635 188.248 240.635 188.344 240.635 188.464C240.635 188.572 240.629 188.674 240.617 188.77H234.209C234.281 189.742 234.563 190.48 235.055 190.984C235.547 191.488 236.315 191.74 237.359 191.74C237.947 191.74 238.439 191.692 238.835 191.596C239.243 191.488 239.549 191.386 239.753 191.29L239.987 192.694C239.783 192.802 239.423 192.916 238.907 193.036C238.403 193.156 237.827 193.216 237.179 193.216C236.363 193.216 235.655 193.096 235.055 192.856C234.467 192.604 233.981 192.262 233.597 191.83C233.213 191.398 232.925 190.888 232.733 190.3C232.553 189.7 232.463 189.046 232.463 188.338ZM238.889 187.42C238.901 186.664 238.709 186.046 238.313 185.566C237.929 185.074 237.395 184.828 236.711 184.828C236.327 184.828 235.985 184.906 235.685 185.062C235.397 185.206 235.151 185.398 234.947 185.638C234.743 185.878 234.581 186.154 234.461 186.466C234.353 186.778 234.281 187.096 234.245 187.42H238.889ZM246.496 183.442C246.64 183.442 246.802 183.454 246.982 183.478C247.174 183.49 247.36 183.514 247.54 183.55C247.72 183.574 247.882 183.604 248.026 183.64C248.182 183.664 248.296 183.688 248.368 183.712L248.08 185.17C247.948 185.122 247.726 185.068 247.414 185.008C247.114 184.936 246.724 184.9 246.244 184.9C245.932 184.9 245.62 184.936 245.308 185.008C245.008 185.068 244.81 185.11 244.714 185.134V193H243.04V184.036C243.436 183.892 243.928 183.76 244.516 183.64C245.104 183.508 245.764 183.442 246.496 183.442ZM255.715 183.64H259.261V185.044H255.715V189.364C255.715 189.832 255.751 190.222 255.823 190.534C255.895 190.834 256.003 191.074 256.147 191.254C256.291 191.422 256.471 191.542 256.687 191.614C256.903 191.686 257.155 191.722 257.443 191.722C257.947 191.722 258.349 191.668 258.649 191.56C258.961 191.44 259.177 191.356 259.297 191.308L259.621 192.694C259.453 192.778 259.159 192.88 258.739 193C258.319 193.132 257.839 193.198 257.299 193.198C256.663 193.198 256.135 193.12 255.715 192.964C255.307 192.796 254.977 192.55 254.725 192.226C254.473 191.902 254.293 191.506 254.185 191.038C254.089 190.558 254.041 190.006 254.041 189.382V181.03L255.715 180.742V183.64ZM269.407 188.32C269.407 189.064 269.299 189.736 269.083 190.336C268.867 190.936 268.561 191.452 268.165 191.884C267.781 192.316 267.319 192.652 266.779 192.892C266.239 193.12 265.651 193.234 265.015 193.234C264.379 193.234 263.791 193.12 263.251 192.892C262.711 192.652 262.243 192.316 261.847 191.884C261.463 191.452 261.163 190.936 260.947 190.336C260.731 189.736 260.623 189.064 260.623 188.32C260.623 187.588 260.731 186.922 260.947 186.322C261.163 185.71 261.463 185.188 261.847 184.756C262.243 184.324 262.711 183.994 263.251 183.766C263.791 183.526 264.379 183.406 265.015 183.406C265.651 183.406 266.239 183.526 266.779 183.766C267.319 183.994 267.781 184.324 268.165 184.756C268.561 185.188 268.867 185.71 269.083 186.322C269.299 186.922 269.407 187.588 269.407 188.32ZM267.661 188.32C267.661 187.264 267.421 186.43 266.941 185.818C266.473 185.194 265.831 184.882 265.015 184.882C264.199 184.882 263.551 185.194 263.071 185.818C262.603 186.43 262.369 187.264 262.369 188.32C262.369 189.376 262.603 190.216 263.071 190.84C263.551 191.452 264.199 191.758 265.015 191.758C265.831 191.758 266.473 191.452 266.941 190.84C267.421 190.216 267.661 189.376 267.661 188.32ZM277.494 183.64H281.04V185.044H277.494V189.364C277.494 189.832 277.53 190.222 277.602 190.534C277.674 190.834 277.782 191.074 277.926 191.254C278.07 191.422 278.25 191.542 278.466 191.614C278.682 191.686 278.934 191.722 279.222 191.722C279.726 191.722 280.128 191.668 280.428 191.56C280.74 191.44 280.956 191.356 281.076 191.308L281.4 192.694C281.232 192.778 280.938 192.88 280.518 193C280.098 193.132 279.618 193.198 279.078 193.198C278.442 193.198 277.914 193.12 277.494 192.964C277.086 192.796 276.756 192.55 276.504 192.226C276.252 191.902 276.072 191.506 275.964 191.038C275.868 190.558 275.82 190.006 275.82 189.382V181.03L277.494 180.742V183.64ZM283.17 193V179.32L284.844 179.032V183.82C285.156 183.7 285.486 183.61 285.834 183.55C286.194 183.478 286.548 183.442 286.896 183.442C287.64 183.442 288.258 183.55 288.75 183.766C289.242 183.97 289.632 184.264 289.92 184.648C290.22 185.02 290.43 185.47 290.55 185.998C290.67 186.526 290.73 187.108 290.73 187.744V193H289.056V188.104C289.056 187.528 289.014 187.036 288.93 186.628C288.858 186.22 288.732 185.89 288.552 185.638C288.372 185.386 288.132 185.206 287.832 185.098C287.532 184.978 287.16 184.918 286.716 184.918C286.536 184.918 286.35 184.93 286.158 184.954C285.966 184.978 285.78 185.008 285.6 185.044C285.432 185.068 285.276 185.098 285.132 185.134C285 185.17 284.904 185.2 284.844 185.224V193H283.17ZM292.932 188.338C292.932 187.51 293.052 186.79 293.292 186.178C293.532 185.554 293.85 185.038 294.246 184.63C294.642 184.222 295.098 183.916 295.614 183.712C296.13 183.508 296.658 183.406 297.198 183.406C298.458 183.406 299.424 183.802 300.096 184.594C300.768 185.374 301.104 186.568 301.104 188.176C301.104 188.248 301.104 188.344 301.104 188.464C301.104 188.572 301.098 188.674 301.086 188.77H294.678C294.75 189.742 295.032 190.48 295.524 190.984C296.016 191.488 296.784 191.74 297.828 191.74C298.416 191.74 298.908 191.692 299.304 191.596C299.712 191.488 300.018 191.386 300.222 191.29L300.456 192.694C300.252 192.802 299.892 192.916 299.376 193.036C298.872 193.156 298.296 193.216 297.648 193.216C296.832 193.216 296.124 193.096 295.524 192.856C294.936 192.604 294.45 192.262 294.066 191.83C293.682 191.398 293.394 190.888 293.202 190.3C293.022 189.7 292.932 189.046 292.932 188.338ZM299.358 187.42C299.37 186.664 299.178 186.046 298.782 185.566C298.398 185.074 297.864 184.828 297.18 184.828C296.796 184.828 296.454 184.906 296.154 185.062C295.866 185.206 295.62 185.398 295.416 185.638C295.212 185.878 295.05 186.154 294.93 186.466C294.822 186.778 294.75 187.096 294.714 187.42H299.358ZM309.852 191.794C310.536 191.794 311.04 191.704 311.364 191.524C311.7 191.344 311.868 191.056 311.868 190.66C311.868 190.252 311.706 189.928 311.382 189.688C311.058 189.448 310.524 189.178 309.78 188.878C309.42 188.734 309.072 188.59 308.736 188.446C308.412 188.29 308.13 188.11 307.89 187.906C307.65 187.702 307.458 187.456 307.314 187.168C307.17 186.88 307.098 186.526 307.098 186.106C307.098 185.278 307.404 184.624 308.016 184.144C308.628 183.652 309.462 183.406 310.518 183.406C310.782 183.406 311.046 183.424 311.31 183.46C311.574 183.484 311.82 183.52 312.048 183.568C312.276 183.604 312.474 183.646 312.642 183.694C312.822 183.742 312.96 183.784 313.056 183.82L312.75 185.26C312.57 185.164 312.288 185.068 311.904 184.972C311.52 184.864 311.058 184.81 310.518 184.81C310.05 184.81 309.642 184.906 309.294 185.098C308.946 185.278 308.772 185.566 308.772 185.962C308.772 186.166 308.808 186.346 308.88 186.502C308.964 186.658 309.084 186.802 309.24 186.934C309.408 187.054 309.612 187.168 309.852 187.276C310.092 187.384 310.38 187.498 310.716 187.618C311.16 187.786 311.556 187.954 311.904 188.122C312.252 188.278 312.546 188.464 312.786 188.68C313.038 188.896 313.23 189.16 313.362 189.472C313.494 189.772 313.56 190.144 313.56 190.588C313.56 191.452 313.236 192.106 312.588 192.55C311.952 192.994 311.04 193.216 309.852 193.216C309.024 193.216 308.376 193.144 307.908 193C307.44 192.868 307.122 192.766 306.954 192.694L307.26 191.254C307.452 191.326 307.758 191.434 308.178 191.578C308.598 191.722 309.156 191.794 309.852 191.794ZM314.61 194.746C314.742 194.806 314.91 194.86 315.114 194.908C315.33 194.968 315.54 194.998 315.744 194.998C316.404 194.998 316.92 194.848 317.292 194.548C317.664 194.26 318 193.786 318.3 193.126C317.544 191.686 316.836 190.162 316.176 188.554C315.528 186.934 314.988 185.296 314.556 183.64H316.356C316.488 184.18 316.644 184.762 316.824 185.386C317.016 186.01 317.226 186.652 317.454 187.312C317.682 187.972 317.928 188.632 318.192 189.292C318.456 189.952 318.732 190.588 319.02 191.2C319.476 189.94 319.872 188.692 320.208 187.456C320.544 186.22 320.862 184.948 321.162 183.64H322.89C322.458 185.404 321.978 187.102 321.45 188.734C320.922 190.354 320.352 191.872 319.74 193.288C319.5 193.828 319.248 194.29 318.984 194.674C318.732 195.07 318.45 195.394 318.138 195.646C317.826 195.898 317.472 196.084 317.076 196.204C316.692 196.324 316.254 196.384 315.762 196.384C315.63 196.384 315.492 196.372 315.348 196.348C315.204 196.336 315.06 196.312 314.916 196.276C314.784 196.252 314.658 196.222 314.538 196.186C314.43 196.15 314.352 196.12 314.304 196.096L314.61 194.746ZM326.833 191.794C327.517 191.794 328.021 191.704 328.345 191.524C328.681 191.344 328.849 191.056 328.849 190.66C328.849 190.252 328.687 189.928 328.363 189.688C328.039 189.448 327.505 189.178 326.761 188.878C326.401 188.734 326.053 188.59 325.717 188.446C325.393 188.29 325.111 188.11 324.871 187.906C324.631 187.702 324.439 187.456 324.295 187.168C324.151 186.88 324.079 186.526 324.079 186.106C324.079 185.278 324.385 184.624 324.997 184.144C325.609 183.652 326.443 183.406 327.499 183.406C327.763 183.406 328.027 183.424 328.291 183.46C328.555 183.484 328.801 183.52 329.029 183.568C329.257 183.604 329.455 183.646 329.623 183.694C329.803 183.742 329.941 183.784 330.037 183.82L329.731 185.26C329.551 185.164 329.269 185.068 328.885 184.972C328.501 184.864 328.039 184.81 327.499 184.81C327.031 184.81 326.623 184.906 326.275 185.098C325.927 185.278 325.753 185.566 325.753 185.962C325.753 186.166 325.789 186.346 325.861 186.502C325.945 186.658 326.065 186.802 326.221 186.934C326.389 187.054 326.593 187.168 326.833 187.276C327.073 187.384 327.361 187.498 327.697 187.618C328.141 187.786 328.537 187.954 328.885 188.122C329.233 188.278 329.527 188.464 329.767 188.68C330.019 188.896 330.211 189.16 330.343 189.472C330.475 189.772 330.541 190.144 330.541 190.588C330.541 191.452 330.217 192.106 329.569 192.55C328.933 192.994 328.021 193.216 326.833 193.216C326.005 193.216 325.357 193.144 324.889 193C324.421 192.868 324.103 192.766 323.935 192.694L324.241 191.254C324.433 191.326 324.739 191.434 325.159 191.578C325.579 191.722 326.137 191.794 326.833 191.794ZM334.254 183.64H337.8V185.044H334.254V189.364C334.254 189.832 334.29 190.222 334.362 190.534C334.434 190.834 334.542 191.074 334.686 191.254C334.83 191.422 335.01 191.542 335.226 191.614C335.442 191.686 335.694 191.722 335.982 191.722C336.486 191.722 336.888 191.668 337.188 191.56C337.5 191.44 337.716 191.356 337.836 191.308L338.16 192.694C337.992 192.778 337.698 192.88 337.278 193C336.858 193.132 336.378 193.198 335.838 193.198C335.202 193.198 334.674 193.12 334.254 192.964C333.846 192.796 333.516 192.55 333.264 192.226C333.012 191.902 332.832 191.506 332.724 191.038C332.628 190.558 332.58 190.006 332.58 189.382V181.03L334.254 180.742V183.64ZM339.232 188.338C339.232 187.51 339.352 186.79 339.592 186.178C339.832 185.554 340.15 185.038 340.546 184.63C340.942 184.222 341.398 183.916 341.914 183.712C342.43 183.508 342.958 183.406 343.498 183.406C344.758 183.406 345.724 183.802 346.396 184.594C347.068 185.374 347.404 186.568 347.404 188.176C347.404 188.248 347.404 188.344 347.404 188.464C347.404 188.572 347.398 188.674 347.386 188.77H340.978C341.05 189.742 341.332 190.48 341.824 190.984C342.316 191.488 343.084 191.74 344.128 191.74C344.716 191.74 345.208 191.692 345.604 191.596C346.012 191.488 346.318 191.386 346.522 191.29L346.756 192.694C346.552 192.802 346.192 192.916 345.676 193.036C345.172 193.156 344.596 193.216 343.948 193.216C343.132 193.216 342.424 193.096 341.824 192.856C341.236 192.604 340.75 192.262 340.366 191.83C339.982 191.398 339.694 190.888 339.502 190.3C339.322 189.7 339.232 189.046 339.232 188.338ZM345.658 187.42C345.67 186.664 345.478 186.046 345.082 185.566C344.698 185.074 344.164 184.828 343.48 184.828C343.096 184.828 342.754 184.906 342.454 185.062C342.166 185.206 341.92 185.398 341.716 185.638C341.512 185.878 341.35 186.154 341.23 186.466C341.122 186.778 341.05 187.096 341.014 187.42H345.658ZM349.809 183.91C350.193 183.814 350.697 183.712 351.321 183.604C351.957 183.496 352.689 183.442 353.517 183.442C354.117 183.442 354.621 183.526 355.029 183.694C355.437 183.85 355.779 184.084 356.055 184.396C356.139 184.336 356.271 184.252 356.451 184.144C356.631 184.036 356.853 183.934 357.117 183.838C357.381 183.73 357.675 183.64 357.999 183.568C358.323 183.484 358.671 183.442 359.043 183.442C359.763 183.442 360.351 183.55 360.807 183.766C361.263 183.97 361.617 184.264 361.869 184.648C362.133 185.032 362.307 185.488 362.391 186.016C362.487 186.544 362.535 187.12 362.535 187.744V193H360.861V188.104C360.861 187.552 360.831 187.078 360.771 186.682C360.723 186.286 360.621 185.956 360.465 185.692C360.321 185.428 360.117 185.236 359.853 185.116C359.601 184.984 359.271 184.918 358.863 184.918C358.299 184.918 357.831 184.996 357.459 185.152C357.099 185.296 356.853 185.428 356.721 185.548C356.817 185.86 356.889 186.202 356.937 186.574C356.985 186.946 357.009 187.336 357.009 187.744V193H355.335V188.104C355.335 187.552 355.305 187.078 355.245 186.682C355.185 186.286 355.077 185.956 354.921 185.692C354.777 185.428 354.573 185.236 354.309 185.116C354.057 184.984 353.733 184.918 353.337 184.918C353.169 184.918 352.989 184.924 352.797 184.936C352.605 184.948 352.419 184.966 352.239 184.99C352.071 185.002 351.915 185.02 351.771 185.044C351.627 185.068 351.531 185.086 351.483 185.098V193H349.809V183.91ZM372.647 191.794C373.043 191.794 373.391 191.788 373.691 191.776C374.003 191.752 374.261 191.716 374.465 191.668V188.878C374.345 188.818 374.147 188.77 373.871 188.734C373.607 188.686 373.283 188.662 372.899 188.662C372.647 188.662 372.377 188.68 372.089 188.716C371.813 188.752 371.555 188.83 371.315 188.95C371.087 189.058 370.895 189.214 370.739 189.418C370.583 189.61 370.505 189.868 370.505 190.192C370.505 190.792 370.697 191.212 371.081 191.452C371.465 191.68 371.987 191.794 372.647 191.794ZM372.503 183.406C373.175 183.406 373.739 183.496 374.195 183.676C374.663 183.844 375.035 184.09 375.311 184.414C375.599 184.726 375.803 185.104 375.923 185.548C376.043 185.98 376.103 186.46 376.103 186.988V192.838C375.959 192.862 375.755 192.898 375.491 192.946C375.239 192.982 374.951 193.018 374.627 193.054C374.303 193.09 373.949 193.12 373.565 193.144C373.193 193.18 372.821 193.198 372.449 193.198C371.921 193.198 371.435 193.144 370.991 193.036C370.547 192.928 370.163 192.76 369.839 192.532C369.515 192.292 369.263 191.98 369.083 191.596C368.903 191.212 368.813 190.75 368.813 190.21C368.813 189.694 368.915 189.25 369.119 188.878C369.335 188.506 369.623 188.206 369.983 187.978C370.343 187.75 370.763 187.582 371.243 187.474C371.723 187.366 372.227 187.312 372.755 187.312C372.923 187.312 373.097 187.324 373.277 187.348C373.457 187.36 373.625 187.384 373.781 187.42C373.949 187.444 374.093 187.468 374.213 187.492C374.333 187.516 374.417 187.534 374.465 187.546V187.078C374.465 186.802 374.435 186.532 374.375 186.268C374.315 185.992 374.207 185.752 374.051 185.548C373.895 185.332 373.679 185.164 373.403 185.044C373.139 184.912 372.791 184.846 372.359 184.846C371.807 184.846 371.321 184.888 370.901 184.972C370.493 185.044 370.187 185.122 369.983 185.206L369.785 183.82C370.001 183.724 370.361 183.634 370.865 183.55C371.369 183.454 371.915 183.406 372.503 183.406ZM381.061 191.794C381.745 191.794 382.249 191.704 382.573 191.524C382.909 191.344 383.077 191.056 383.077 190.66C383.077 190.252 382.915 189.928 382.591 189.688C382.267 189.448 381.733 189.178 380.989 188.878C380.629 188.734 380.281 188.59 379.945 188.446C379.621 188.29 379.339 188.11 379.099 187.906C378.859 187.702 378.667 187.456 378.523 187.168C378.379 186.88 378.307 186.526 378.307 186.106C378.307 185.278 378.613 184.624 379.225 184.144C379.837 183.652 380.671 183.406 381.727 183.406C381.991 183.406 382.255 183.424 382.519 183.46C382.783 183.484 383.029 183.52 383.257 183.568C383.485 183.604 383.683 183.646 383.851 183.694C384.031 183.742 384.169 183.784 384.265 183.82L383.959 185.26C383.779 185.164 383.497 185.068 383.113 184.972C382.729 184.864 382.267 184.81 381.727 184.81C381.259 184.81 380.851 184.906 380.503 185.098C380.155 185.278 379.981 185.566 379.981 185.962C379.981 186.166 380.017 186.346 380.089 186.502C380.173 186.658 380.293 186.802 380.449 186.934C380.617 187.054 380.821 187.168 381.061 187.276C381.301 187.384 381.589 187.498 381.925 187.618C382.369 187.786 382.765 187.954 383.113 188.122C383.461 188.278 383.755 188.464 383.995 188.68C384.247 188.896 384.439 189.16 384.571 189.472C384.703 189.772 384.769 190.144 384.769 190.588C384.769 191.452 384.445 192.106 383.797 192.55C383.161 192.994 382.249 193.216 381.061 193.216C380.233 193.216 379.585 193.144 379.117 193C378.649 192.868 378.331 192.766 378.163 192.694L378.469 191.254C378.661 191.326 378.967 191.434 379.387 191.578C379.807 191.722 380.365 191.794 381.061 191.794ZM394.251 191.794C394.647 191.794 394.995 191.788 395.295 191.776C395.607 191.752 395.865 191.716 396.069 191.668V188.878C395.949 188.818 395.751 188.77 395.475 188.734C395.211 188.686 394.887 188.662 394.503 188.662C394.251 188.662 393.981 188.68 393.693 188.716C393.417 188.752 393.159 188.83 392.919 188.95C392.691 189.058 392.499 189.214 392.343 189.418C392.187 189.61 392.109 189.868 392.109 190.192C392.109 190.792 392.301 191.212 392.685 191.452C393.069 191.68 393.591 191.794 394.251 191.794ZM394.107 183.406C394.779 183.406 395.343 183.496 395.799 183.676C396.267 183.844 396.639 184.09 396.915 184.414C397.203 184.726 397.407 185.104 397.527 185.548C397.647 185.98 397.707 186.46 397.707 186.988V192.838C397.563 192.862 397.359 192.898 397.095 192.946C396.843 192.982 396.555 193.018 396.231 193.054C395.907 193.09 395.553 193.12 395.169 193.144C394.797 193.18 394.425 193.198 394.053 193.198C393.525 193.198 393.039 193.144 392.595 193.036C392.151 192.928 391.767 192.76 391.443 192.532C391.119 192.292 390.867 191.98 390.687 191.596C390.507 191.212 390.417 190.75 390.417 190.21C390.417 189.694 390.519 189.25 390.723 188.878C390.939 188.506 391.227 188.206 391.587 187.978C391.947 187.75 392.367 187.582 392.847 187.474C393.327 187.366 393.831 187.312 394.359 187.312C394.527 187.312 394.701 187.324 394.881 187.348C395.061 187.36 395.229 187.384 395.385 187.42C395.553 187.444 395.697 187.468 395.817 187.492C395.937 187.516 396.021 187.534 396.069 187.546V187.078C396.069 186.802 396.039 186.532 395.979 186.268C395.919 185.992 395.811 185.752 395.655 185.548C395.499 185.332 395.283 185.164 395.007 185.044C394.743 184.912 394.395 184.846 393.963 184.846C393.411 184.846 392.925 184.888 392.505 184.972C392.097 185.044 391.791 185.122 391.587 185.206L391.389 183.82C391.605 183.724 391.965 183.634 392.469 183.55C392.973 183.454 393.519 183.406 394.107 183.406ZM400.487 183.91C400.871 183.814 401.381 183.712 402.017 183.604C402.653 183.496 403.385 183.442 404.213 183.442C404.957 183.442 405.575 183.55 406.067 183.766C406.559 183.97 406.949 184.264 407.237 184.648C407.537 185.02 407.747 185.47 407.867 185.998C407.987 186.526 408.047 187.108 408.047 187.744V193H406.373V188.104C406.373 187.528 406.331 187.036 406.247 186.628C406.175 186.22 406.049 185.89 405.869 185.638C405.689 185.386 405.449 185.206 405.149 185.098C404.849 184.978 404.477 184.918 404.033 184.918C403.853 184.918 403.667 184.924 403.475 184.936C403.283 184.948 403.097 184.966 402.917 184.99C402.749 185.002 402.593 185.02 402.449 185.044C402.317 185.068 402.221 185.086 402.161 185.098V193H400.487V183.91ZM418.157 191.794C418.553 191.794 418.901 191.788 419.201 191.776C419.513 191.752 419.771 191.716 419.975 191.668V188.878C419.855 188.818 419.657 188.77 419.381 188.734C419.117 188.686 418.793 188.662 418.409 188.662C418.157 188.662 417.887 188.68 417.599 188.716C417.323 188.752 417.065 188.83 416.825 188.95C416.597 189.058 416.405 189.214 416.249 189.418C416.093 189.61 416.015 189.868 416.015 190.192C416.015 190.792 416.207 191.212 416.591 191.452C416.975 191.68 417.497 191.794 418.157 191.794ZM418.013 183.406C418.685 183.406 419.249 183.496 419.705 183.676C420.173 183.844 420.545 184.09 420.821 184.414C421.109 184.726 421.313 185.104 421.433 185.548C421.553 185.98 421.613 186.46 421.613 186.988V192.838C421.469 192.862 421.265 192.898 421.001 192.946C420.749 192.982 420.461 193.018 420.137 193.054C419.813 193.09 419.459 193.12 419.075 193.144C418.703 193.18 418.331 193.198 417.959 193.198C417.431 193.198 416.945 193.144 416.501 193.036C416.057 192.928 415.673 192.76 415.349 192.532C415.025 192.292 414.773 191.98 414.593 191.596C414.413 191.212 414.323 190.75 414.323 190.21C414.323 189.694 414.425 189.25 414.629 188.878C414.845 188.506 415.133 188.206 415.493 187.978C415.853 187.75 416.273 187.582 416.753 187.474C417.233 187.366 417.737 187.312 418.265 187.312C418.433 187.312 418.607 187.324 418.787 187.348C418.967 187.36 419.135 187.384 419.291 187.42C419.459 187.444 419.603 187.468 419.723 187.492C419.843 187.516 419.927 187.534 419.975 187.546V187.078C419.975 186.802 419.945 186.532 419.885 186.268C419.825 185.992 419.717 185.752 419.561 185.548C419.405 185.332 419.189 185.164 418.913 185.044C418.649 184.912 418.301 184.846 417.869 184.846C417.317 184.846 416.831 184.888 416.411 184.972C416.003 185.044 415.697 185.122 415.493 185.206L415.295 183.82C415.511 183.724 415.871 183.634 416.375 183.55C416.879 183.454 417.425 183.406 418.013 183.406ZM430.441 185.62C430.237 185.452 429.943 185.29 429.559 185.134C429.175 184.978 428.755 184.9 428.299 184.9C427.819 184.9 427.405 184.99 427.057 185.17C426.721 185.338 426.445 185.578 426.229 185.89C426.013 186.19 425.857 186.55 425.761 186.97C425.665 187.39 425.617 187.84 425.617 188.32C425.617 189.412 425.887 190.258 426.427 190.858C426.967 191.446 427.687 191.74 428.587 191.74C429.043 191.74 429.421 191.722 429.721 191.686C430.033 191.638 430.273 191.59 430.441 191.542V185.62ZM430.441 179.32L432.115 179.032V192.73C431.731 192.838 431.239 192.946 430.639 193.054C430.039 193.162 429.349 193.216 428.569 193.216C427.849 193.216 427.201 193.102 426.625 192.874C426.049 192.646 425.557 192.322 425.149 191.902C424.741 191.482 424.423 190.972 424.195 190.372C423.979 189.76 423.871 189.076 423.871 188.32C423.871 187.6 423.961 186.94 424.141 186.34C424.333 185.74 424.609 185.224 424.969 184.792C425.329 184.36 425.767 184.024 426.283 183.784C426.811 183.544 427.411 183.424 428.083 183.424C428.623 183.424 429.097 183.496 429.505 183.64C429.925 183.784 430.237 183.922 430.441 184.054V179.32ZM434.993 183.91C435.377 183.814 435.881 183.712 436.505 183.604C437.141 183.496 437.873 183.442 438.701 183.442C439.301 183.442 439.805 183.526 440.213 183.694C440.621 183.85 440.963 184.084 441.239 184.396C441.323 184.336 441.455 184.252 441.635 184.144C441.815 184.036 442.037 183.934 442.301 183.838C442.565 183.73 442.859 183.64 443.183 183.568C443.507 183.484 443.855 183.442 444.227 183.442C444.947 183.442 445.535 183.55 445.991 183.766C446.447 183.97 446.801 184.264 447.053 184.648C447.317 185.032 447.491 185.488 447.575 186.016C447.671 186.544 447.719 187.12 447.719 187.744V193H446.045V188.104C446.045 187.552 446.015 187.078 445.955 186.682C445.907 186.286 445.805 185.956 445.649 185.692C445.505 185.428 445.301 185.236 445.037 185.116C444.785 184.984 444.455 184.918 444.047 184.918C443.483 184.918 443.015 184.996 442.643 185.152C442.283 185.296 442.037 185.428 441.905 185.548C442.001 185.86 442.073 186.202 442.121 186.574C442.169 186.946 442.193 187.336 442.193 187.744V193H440.519V188.104C440.519 187.552 440.489 187.078 440.429 186.682C440.369 186.286 440.261 185.956 440.105 185.692C439.961 185.428 439.757 185.236 439.493 185.116C439.241 184.984 438.917 184.918 438.521 184.918C438.353 184.918 438.173 184.924 437.981 184.936C437.789 184.948 437.603 184.966 437.423 184.99C437.255 185.002 437.099 185.02 436.955 185.044C436.811 185.068 436.715 185.086 436.667 185.098V193H434.993V183.91ZM452.171 193H450.497V183.64H452.171V193ZM451.325 181.948C451.025 181.948 450.767 181.852 450.551 181.66C450.347 181.456 450.245 181.186 450.245 180.85C450.245 180.514 450.347 180.25 450.551 180.058C450.767 179.854 451.025 179.752 451.325 179.752C451.625 179.752 451.877 179.854 452.081 180.058C452.297 180.25 452.405 180.514 452.405 180.85C452.405 181.186 452.297 181.456 452.081 181.66C451.877 181.852 451.625 181.948 451.325 181.948ZM455.049 183.91C455.433 183.814 455.943 183.712 456.579 183.604C457.215 183.496 457.947 183.442 458.775 183.442C459.519 183.442 460.137 183.55 460.629 183.766C461.121 183.97 461.511 184.264 461.799 184.648C462.099 185.02 462.309 185.47 462.429 185.998C462.549 186.526 462.609 187.108 462.609 187.744V193H460.935V188.104C460.935 187.528 460.893 187.036 460.809 186.628C460.737 186.22 460.611 185.89 460.431 185.638C460.251 185.386 460.011 185.206 459.711 185.098C459.411 184.978 459.039 184.918 458.595 184.918C458.415 184.918 458.229 184.924 458.037 184.936C457.845 184.948 457.659 184.966 457.479 184.99C457.311 185.002 457.155 185.02 457.011 185.044C456.879 185.068 456.783 185.086 456.723 185.098V193H455.049V183.91Z" fill="#F3F3F3"/>
</g>
<defs>
<clipPath id="clip0">
<rect width="531" height="492" fill="white"/>
</clipPath>
</defs>
</svg>
