<svg width="456" height="502" viewBox="0 0 456 502" fill="none" xmlns="http://www.w3.org/2000/svg">
<g clip-path="url(#clip0)">
<path d="M451 -33H-24C-26.7614 -33 -29 -30.7614 -29 -28V530C-29 532.761 -26.7614 535 -24 535H451C453.761 535 456 532.761 456 530V-28C456 -30.7614 453.761 -33 451 -33Z" fill="#ED960B"/>
<path d="M80.5 530C153.125 530 212 471.125 212 398.5C212 325.875 153.125 267 80.5 267C7.87456 267 -51 325.875 -51 398.5C-51 471.125 7.87456 530 80.5 530Z" fill="#FFBB4E"/>
<path d="M391.5 90C408.897 90 423 75.897 423 58.5C423 41.103 408.897 27 391.5 27C374.103 27 360 41.103 360 58.5C360 75.897 374.103 90 391.5 90Z" fill="#FFBB4E"/>
</g>
<defs>
<clipPath id="clip0">
<rect width="456" height="502" fill="white"/>
</clipPath>
</defs>
</svg>
